<svg xmlns="http://www.w3.org/2000/svg" viewBox="-6 -16 1120 550" width="1200" height="589" role="img" aria-label="Schema 3 — DB per service (✅)">
<style>
:root{--ink:#2b2f36;--ink-soft:#6b7280;--line:#e2e6ef;--fill:#f3f5f9;--paper:#fff;--blue:#1b86f2;--blue-deep:#1466c4;--blue-soft:#e2f0fd;--orange:#ff9d18;--good:#3bb273;--bad:#e5534b}
svg{background:var(--paper);font-family:"Hanken Grotesk",Inter,Arial,sans-serif;color:var(--ink)}
.title{font-size:34px;font-weight:800;fill:var(--ink)}.subtitle{font-size:16px;fill:var(--ink-soft)}
.brand{font-family:"Caveat",cursive;font-weight:700;font-size:28px;fill:var(--blue-deep)}
.code{font-family:"JetBrains Mono",monospace;font-size:15px;fill:var(--ink-soft)}
.box{fill:var(--paper);stroke:var(--line);stroke-width:2;rx:20;filter:url(#shadow)}
.soft{fill:var(--fill);stroke:var(--line);stroke-width:2;rx:16}.label{font-size:22px;font-weight:800;fill:var(--ink)}.small{font-size:15px;fill:var(--ink-soft)}.mini{font-size:13px;fill:var(--ink-soft)}
.arrow{stroke:var(--blue);stroke-width:3;fill:none;stroke-linecap:round;stroke-linejoin:round}
.arrowOrange{stroke:var(--orange);stroke-width:3;fill:none;stroke-linecap:round;stroke-linejoin:round}
.arrowGood{stroke:var(--good);stroke-width:3;fill:none;stroke-linecap:round;stroke-linejoin:round}
.flow{stroke-dasharray:8 14;animation:dash 1.1s linear infinite}.packet{filter:url(#glow)}
@keyframes dash{to{stroke-dashoffset:-44}}@keyframes pulse{0%,100%{opacity:.35;transform:scale(1)}50%{opacity:1;transform:scale(1.08)}}
.badge{fill:var(--blue-soft);stroke:var(--blue);stroke-width:1.5}
</style>
<defs>
<filter id="shadow" x="-20%" y="-20%" width="140%" height="140%"><feDropShadow dx="0" dy="12" stdDeviation="12" flood-color="#2b2f36" flood-opacity="0.08"/></filter>
<filter id="glow" x="-80%" y="-80%" width="260%" height="260%"><feGaussianBlur stdDeviation="3" result="b"/><feMerge><feMergeNode in="b"/><feMergeNode in="SourceGraphic"/></feMerge></filter>
<marker id="arrowBlue" markerWidth="12" markerHeight="12" refX="10" refY="6" orient="auto"><path d="M2,2 L10,6 L2,10" fill="none" stroke="#1b86f2" stroke-width="2" stroke-linecap="round" stroke-linejoin="round"/></marker>
<marker id="arrowGreen" markerWidth="12" markerHeight="12" refX="10" refY="6" orient="auto"><path d="M2,2 L10,6 L2,10" fill="none" stroke="#3bb273" stroke-width="2" stroke-linecap="round" stroke-linejoin="round"/></marker>
<marker id="arrowOrange" markerWidth="12" markerHeight="12" refX="10" refY="6" orient="auto"><path d="M2,2 L10,6 L2,10" fill="none" stroke="#ff9d18" stroke-width="2" stroke-linecap="round" stroke-linejoin="round"/></marker>
</defs>

<!-- user-service -->
<rect x="110" y="205" width="280" height="125" rx="20" filter="url(#shadow)" fill="#fff" stroke="#e2e6ef" stroke-width="2"/>
<rect x="134" y="229" width="56" height="56" rx="16" fill="#1b86f2" opacity=".12" stroke="#1b86f2" stroke-width="2"/>
<text x="250" y="263" text-anchor="middle" class="label">user-service</text>
<text x="250" y="293" text-anchor="middle" class="small">User API</text>

<!-- order-service -->
<rect x="460" y="205" width="280" height="125" rx="20" filter="url(#shadow)" fill="#fff" stroke="#e2e6ef" stroke-width="2"/>
<rect x="484" y="229" width="56" height="56" rx="16" fill="#3bb273" opacity=".12" stroke="#3bb273" stroke-width="2"/>
<text x="600" y="263" text-anchor="middle" class="label">order-service</text>
<text x="600" y="293" text-anchor="middle" class="small">Order API</text>

<!-- billing-service -->
<rect x="810" y="205" width="280" height="125" rx="20" filter="url(#shadow)" fill="#fff" stroke="#e2e6ef" stroke-width="2"/>
<rect x="834" y="229" width="56" height="56" rx="16" fill="#ff9d18" opacity=".12" stroke="#ff9d18" stroke-width="2"/>
<text x="950" y="263" text-anchor="middle" class="label">billing-service</text>
<text x="950" y="293" text-anchor="middle" class="small">Billing API</text>

<!-- Arrows to DB cards -->
<path id="a0" d="M250,330 L250,410" fill="none" stroke="#1b86f2" stroke-width="2.5" stroke-dasharray="8 14" marker-end="url(#arrowBlue)"/>
<circle r="8" fill="#1b86f2" class="packet"><animateMotion dur="1.8s" repeatCount="indefinite" rotate="auto"><mpath href="#a0"/></animateMotion></circle>

<path id="a1" d="M600,330 L600,410" fill="none" stroke="#3bb273" stroke-width="2.5" stroke-dasharray="8 14" marker-end="url(#arrowGreen)"/>
<circle r="8" fill="#3bb273" class="packet"><animateMotion dur="1.8s" repeatCount="indefinite" rotate="auto"><mpath href="#a1"/></animateMotion></circle>

<path id="a2" d="M950,330 L950,410" fill="none" stroke="#ff9d18" stroke-width="2.5" stroke-dasharray="8 14" marker-end="url(#arrowOrange)"/>
<circle r="8" fill="#ff9d18" class="packet"><animateMotion dur="1.8s" repeatCount="indefinite" rotate="auto"><mpath href="#a2"/></animateMotion></circle>

<!-- PostgreSQL DB card (blue) -->
<rect x="160" y="410" width="180" height="100" rx="18" fill="#e2f0fd" stroke="#1b86f2" stroke-width="2" filter="url(#shadow)"/>
<g transform="translate(232, 421)" fill="none" stroke="#1b86f2" stroke-width="2" stroke-linecap="round" stroke-linejoin="round">
  <ellipse cx="18" cy="8" rx="15" ry="5"/>
  <path d="M3,8 V22 C3,24.8 9.7,27 18,27 S33,24.8 33,22 V8"/>
  <path d="M3,15 C3,17.8 9.7,20 18,20 S33,17.8 33,15"/>
</g>
<text x="250" y="492" text-anchor="middle" class="code" fill="#1466c4" font-weight="700">PostgreSQL</text>

<!-- MongoDB DB card (green) -->
<rect x="510" y="410" width="180" height="100" rx="18" fill="#e9f8ef" stroke="#3bb273" stroke-width="2" filter="url(#shadow)"/>
<g transform="translate(582, 421)" fill="none" stroke="#3bb273" stroke-width="2" stroke-linecap="round" stroke-linejoin="round">
  <ellipse cx="18" cy="8" rx="15" ry="5"/>
  <path d="M3,8 V22 C3,24.8 9.7,27 18,27 S33,24.8 33,22 V8"/>
  <path d="M3,15 C3,17.8 9.7,20 18,20 S33,17.8 33,15"/>
</g>
<text x="600" y="492" text-anchor="middle" class="code" fill="#1e7e46" font-weight="700">MongoDB</text>

<!-- Redis DB card (orange) -->
<rect x="860" y="410" width="180" height="100" rx="18" fill="#fff3e6" stroke="#ff9d18" stroke-width="2" filter="url(#shadow)"/>
<g transform="translate(932, 421)" fill="none" stroke="#ff9d18" stroke-width="2" stroke-linecap="round" stroke-linejoin="round">
  <ellipse cx="18" cy="8" rx="15" ry="5"/>
  <path d="M3,8 V22 C3,24.8 9.7,27 18,27 S33,24.8 33,22 V8"/>
  <path d="M3,15 C3,17.8 9.7,20 18,20 S33,17.8 33,15"/>
</g>
<text x="950" y="492" text-anchor="middle" class="code" fill="#cc6f00" font-weight="700">Redis</text>
</svg>
